<svg xmlns="http://www.w3.org/2000/svg" width="32" height="32" viewBox="0 0 32 32">
    <g fill="none" fill-rule="evenodd">
        <path fill="#FFF" d="M0 0h32v32H0z"/>
        <g fill="#F28900">
            <path d="M16 26.15C9.852 26.15 4.85 21.148 4.85 15 4.85 8.852 9.852 3.85 16 3.85c6.148 0 11.15 5.002 11.15 11.15 0 6.148-5.002 11.15-11.15 11.15M16 0C7.716 0 1 6.716 1 15c0 8.284 6.716 15 15 15 8.284 0 15-6.716 15-15 0-8.284-6.716-15-15-15"/>
            <path d="M13.674 17.423v1.026a.16.16 0 0 1-.16.16h-.161v1.605h.16s0 1.283-.641 1.283c-.642 0-.642-1.283-.642-1.283h.16V18.61h-.16a.16.16 0 0 1-.16-.16v-1.027c-1.499-.418-1.765-2.794-1.765-4.108 0-1.443 1.123-1.925 2.567-1.925 1.444 0 2.567.482 2.567 1.925 0 1.314-.267 3.69-1.765 4.108m12.35-2.75c-.044-.681-.641-1.197-1.325-1.197h-6.854a.32.32 0 0 1 0-.642h5.41c.684 0 1.281-.516 1.325-1.198a1.284 1.284 0 0 0-1.28-1.369h-9.21l-.028-.02s.735-1.103 1.377-1.905c.641-.802.962-1.925-.16-2.727-.942-.672-1.926.16-2.407.802-.482.642-3.37 4.332-4.653 6.096-1.283 1.765-1.283 3.209-1.283 3.85 0 3.21 1.925 6.097 5.294 6.097h9.421c.684 0 1.28-.516 1.325-1.198a1.284 1.284 0 0 0-1.28-1.369h-3.851a.32.32 0 0 1 0-.642h5.41c.684 0 1.281-.516 1.325-1.198a1.284 1.284 0 0 0-1.28-1.369h-5.455a.32.32 0 0 1 0-.641h6.898c.737 0 1.33-.622 1.28-1.37"/>
            <path d="M12.872 12.513a1.604 1.604 0 1 0 0 3.209 1.604 1.604 0 0 0 0-3.209"/>
        </g>
        <g transform="translate(8 24)">
            <rect width="24" height="8" fill="#297EF1" fill-rule="nonzero" rx="1"/>
            <path fill="#FFF" d="M3.051 6.2V1.862h1.497c.284 0 .526.027.727.081.202.054.366.131.495.231.13.1.224.221.284.363.06.142.09.302.09.48 0 .102-.015.2-.045.293a.846.846 0 0 1-.14.26 1.045 1.045 0 0 1-.24.221 1.451 1.451 0 0 1-.346.168c.596.134.894.456.894.966 0 .184-.035.354-.105.51-.07.156-.172.29-.306.404a1.462 1.462 0 0 1-.495.265c-.196.064-.42.096-.672.096H3.051zm.807-1.902V5.57h.819c.15 0 .275-.018.376-.054a.654.654 0 0 0 .243-.144.528.528 0 0 0 .132-.21.792.792 0 0 0-.004-.508.475.475 0 0 0-.141-.192.66.66 0 0 0-.246-.122 1.361 1.361 0 0 0-.363-.042h-.816zm0-.558h.645c.274 0 .482-.05.624-.15.142-.1.213-.259.213-.477 0-.226-.064-.387-.192-.483-.128-.096-.328-.144-.6-.144h-.69V3.74zm7.038-1.878v.642H8.973v1.203h1.515v.621H8.973v1.227h1.923V6.2H8.16V1.862h2.736zm4.956 0v.663h-1.305V6.2h-.807V2.525h-1.311v-.663h3.423zM21.378 6.2h-.624a.273.273 0 0 1-.27-.183l-.324-.885h-1.797l-.324.885a.284.284 0 0 1-.267.183h-.627l1.704-4.338h.825L21.378 6.2zM18.57 4.562h1.383l-.528-1.443a6.59 6.59 0 0 1-.165-.51 9.996 9.996 0 0 1-.082.285 3.19 3.19 0 0 1-.08.231l-.528 1.437z"/>
        </g>
    </g>
</svg>
