<svg xmlns="http://www.w3.org/2000/svg" width="32" height="32" viewBox="0 0 32 32">
    <g fill="#F28900" fill-rule="evenodd">
        <path d="M16 27.893C9.442 27.893 4.107 22.558 4.107 16 4.107 9.442 9.442 4.107 16 4.107c6.558 0 11.893 5.335 11.893 11.893 0 6.558-5.335 11.893-11.893 11.893M16 0C7.163 0 0 7.163 0 16s7.163 16 16 16 16-7.163 16-16S24.837 0 16 0"/>
        <path d="M13.519 18.584v1.095a.171.171 0 0 1-.171.171h-.172v1.711h.172s0 1.37-.685 1.37c-.684 0-.684-1.37-.684-1.37h.17v-1.71h-.17a.171.171 0 0 1-.172-.172v-1.095c-1.598-.445-1.882-2.98-1.882-4.38 0-1.541 1.198-2.054 2.738-2.054s2.738.513 2.738 2.053c0 1.402-.284 3.936-1.882 4.381m13.173-2.932c-.047-.727-.684-1.278-1.413-1.278h-7.311a.342.342 0 0 1 0-.684h5.771c.73 0 1.366-.55 1.413-1.278a1.37 1.37 0 0 0-1.366-1.46h-9.824l-.03-.022s.785-1.176 1.47-2.032c.684-.855 1.026-2.053-.172-2.909-1.004-.717-2.054.171-2.567.856-.513.684-3.593 4.62-4.962 6.503-1.37 1.882-1.37 3.422-1.37 4.106 0 3.423 2.054 6.503 5.648 6.503h10.049c.73 0 1.366-.55 1.413-1.278a1.37 1.37 0 0 0-1.366-1.46h-4.107a.342.342 0 0 1 0-.684h5.771c.73 0 1.366-.55 1.413-1.278a1.37 1.37 0 0 0-1.366-1.46h-5.818a.342.342 0 0 1 0-.685h7.358c.787 0 1.418-.663 1.366-1.46"/>
        <path d="M12.663 13.348a1.711 1.711 0 1 0 0 3.422 1.711 1.711 0 0 0 0-3.422"/>
    </g>
</svg>
